<svg id="Layer_1" data-name="Layer 1" xmlns="http://www.w3.org/2000/svg" viewBox="0 0 111.16 148.47"><defs><style>.cls-1{fill:#f9d22f;}.cls-2{fill:#fdee23;}</style></defs><title>flag</title><path class="cls-1" d="M102.07,0H9.28A9.27,9.27,0,0,0,0,9.28V139.19a9.26,9.26,0,0,0,9.28,9.28,8.3,8.3,0,0,0,5.13-1.58l38.3-33a4.54,4.54,0,0,1,6.12,0l37.91,33a9.79,9.79,0,0,0,5.13,1.58,9.26,9.26,0,0,0,9.28-9.28V9.28A9.1,9.1,0,0,0,102.07,0Z"/><path class="cls-2" d="M92.59,118.85,67.72,97.33l-9.08-7.9a4.55,4.55,0,0,0-6.12,0l-9.08,7.9L18.36,118.85V23.3a4.8,4.8,0,0,1,4.74-4.74H88.25A4.8,4.8,0,0,1,93,23.3v95.56Z"/></svg>