<svg id="Layer_1" data-name="Layer 1" xmlns="http://www.w3.org/2000/svg" viewBox="0 0 691.12 830.48"><defs><style>.cls-1,.cls-2{fill:none;stroke:#000;stroke-linecap:round;stroke-linejoin:round;}.cls-1{stroke-width:28.35px;}.cls-2{stroke-width:25.51px;}</style></defs><title>heart-list</title><path class="cls-1" d="M249.44,462.54s-240.3-171.6-235.19-310c0-.69.09-1.35.14-2-.08-2.09-.14-4.19-.14-6.29,0-71.84,53.8-130.08,120.17-130.08,52.92,0,99,37.08,115,88.51.39-1.25-.39-1.25,0,0,16-51.42,62.1-88.51,115-88.51,66.36,0,120.17,58.24,120.17,130.08,0,2.1-.07,4.2-.15,6.29,0,.66.12,1.32.15,2C489.74,290.94,249.44,462.54,249.44,462.54Z"/><path d="M640.08,640.29H187V595.57H640.08Z"/><path d="M640.08,756.76H187V712H640.08Z"/><path d="M640.08,523.83h-313V479.11h313Z"/><path d="M640.08,407.37H473.15V362.65H640.08v44.72Z"/><path class="cls-2" d="M516.06,83.22h134.8a27.5,27.5,0,0,1,27.5,27.5v679.5a27.5,27.5,0,0,1-27.5,27.5h-524a27.5,27.5,0,0,1-27.5-27.5v-374"/></svg>