<svg id="Layer_1" data-name="Layer 1" xmlns="http://www.w3.org/2000/svg" viewBox="0 0 484.09 631.42"><title>list</title><path d="M481,97.79,386.3,3.09A10.46,10.46,0,0,0,378.85,0H52.62A52.68,52.68,0,0,0,0,52.62V578.8a52.68,52.68,0,0,0,52.62,52.62H431.47a52.68,52.68,0,0,0,52.62-52.62V105.24A10.46,10.46,0,0,0,481,97.79ZM389.37,35.93l58.78,58.78H389.37ZM463,578.8a31.61,31.61,0,0,1-31.57,31.57H52.62A31.61,31.61,0,0,1,21,578.8V52.62A31.61,31.61,0,0,1,52.62,21H368.33v84.19a10.52,10.52,0,0,0,10.52,10.52H463Z"/><path d="M94.71,147.33a42.09,42.09,0,1,0,42.09,42.09A42.14,42.14,0,0,0,94.71,147.33Zm0,63.14a21,21,0,1,1,21-21A21.07,21.07,0,0,1,94.71,210.47Z"/><path d="M94.71,263.09a42.09,42.09,0,1,0,42.09,42.09A42.14,42.14,0,0,0,94.71,263.09Zm0,63.14a21,21,0,1,1,21-21A21.07,21.07,0,0,1,94.71,326.23Z"/><path d="M94.71,378.85a42.09,42.09,0,1,0,42.09,42.09A42.14,42.14,0,0,0,94.71,378.85Zm0,63.14a21,21,0,1,1,21-21A21.07,21.07,0,0,1,94.71,442Z"/><path d="M94.71,494.61a42.09,42.09,0,1,0,42.09,42.09A42.14,42.14,0,0,0,94.71,494.61Zm0,63.14a21,21,0,1,1,21-21A21.07,21.07,0,0,1,94.71,557.75Z"/><rect x="157.85" y="199.95" width="273.61" height="21.05"/><rect x="168.38" y="52.62" width="147.33" height="21.05"/><rect x="136.81" y="94.71" width="210.47" height="21.05"/><rect x="157.85" y="315.71" width="273.61" height="21.05"/><rect x="157.85" y="431.47" width="273.61" height="21.05"/><rect x="157.85" y="547.23" width="273.61" height="21.05"/><rect x="242.04" y="157.85" width="21.05" height="21.05"/><rect x="199.95" y="157.85" width="21.05" height="21.05"/><rect x="157.85" y="157.85" width="21.05" height="21.05"/></svg>