<svg id="Layer_1" data-name="Layer 1" xmlns="http://www.w3.org/2000/svg" viewBox="0 0 226.77 177.05"><defs><style>.cls-1{fill:#3e4468;}.cls-2{fill:#93c263;}</style></defs><title>logo</title><path class="cls-1" d="M48,49.89v60.9l-10.52,1v-6.13c-3.33,4.64-8.41,7-14.63,7C9.46,112.71,0,102.12,0,88.65A22.68,22.68,0,0,1,23.13,65.46,21.07,21.07,0,0,1,37,70.62V50.94ZM24.27,75.61a13.48,13.48,0,0,0,0,27,13.48,13.48,0,0,0,0-27Z"/><path class="cls-1" d="M56.08,66.86l11-1v45l-11,1Z"/><path class="cls-1" d="M79.48,112.36a15.38,15.38,0,0,0,13,7c6.83,0,10.78-4.2,10.78-8.92,0-5.51-4.73-9.54-11-9.54A24.6,24.6,0,0,0,82,103.44l2.1-5.69A15.73,15.73,0,0,1,73.61,83.31C73.61,76.4,79,65.46,94,65.46a49.34,49.34,0,0,1,5.08.35c1.75.17,3.59.35,5.34.35a44.82,44.82,0,0,0,14.11-3l-2.19,10a21.38,21.38,0,0,1-3.33.35c-1.05,0-2.1,0-3.15-.09a13.52,13.52,0,0,1,4.21,9.89,13.87,13.87,0,0,1-9.29,13.48c4.3,2.1,9.46,6.48,9.46,14.61,0,9.8-8.24,17-20.94,17-11.13,0-17.35-5.43-20.59-9.36ZM93.85,92.59a9.19,9.19,0,1,0-9.46-9.19A9.2,9.2,0,0,0,93.85,92.59Z"/><path class="cls-1" d="M127.15,112.36a15.37,15.37,0,0,0,13,7c6.83,0,10.78-4.2,10.78-8.92,0-5.51-4.73-9.54-11-9.54a24.63,24.63,0,0,0-10.25,2.54l2.1-5.69a15.73,15.73,0,0,1-10.52-14.44c0-6.91,5.34-17.85,20.42-17.85a49.2,49.2,0,0,1,5.08.35c1.75.17,3.59.35,5.35.35a44.8,44.8,0,0,0,14.11-3l-2.19,10a21.38,21.38,0,0,1-3.33.35c-1,0-2.1,0-3.15-.09a13.52,13.52,0,0,1,4.21,9.89,13.87,13.87,0,0,1-9.29,13.48c4.29,2.1,9.46,6.48,9.46,14.61,0,9.8-8.24,17-20.94,17-11.13,0-17.35-5.43-20.59-9.36Zm14.37-19.77a9.19,9.19,0,1,0-9.47-9.19A9.2,9.2,0,0,0,141.52,92.59Z"/><path class="cls-1" d="M186.91,77H170.17l2.46-10.15h32.59l-19.62,34.3H205l-2.46,10.15H167.28Z"/><circle class="cls-1" cx="61.41" cy="54.5" r="5.57"/><circle class="cls-2" cx="77.4" cy="30.22" r="5.57"/><circle class="cls-1" cx="102.28" cy="12.96" r="5.57"/><circle class="cls-2" cx="133.09" cy="5.57" r="5.57"/><circle class="cls-1" cx="163.09" cy="8.03" r="5.57"/><circle class="cls-2" cx="190.18" cy="21.5" r="5.57"/><circle class="cls-1" cx="210.52" cy="46.15" r="5.57"/><circle class="cls-2" cx="219.56" cy="75.94" r="5.57"/><circle class="cls-1" cx="221.21" cy="105.33" r="5.57"/><circle class="cls-2" cx="210.11" cy="132.45" r="5.57"/><circle class="cls-1" cx="190.39" cy="153.4" r="5.57"/><circle class="cls-2" cx="164.5" cy="167.37" r="5.57"/><circle class="cls-1" cx="134.09" cy="171.48" r="5.57"/><circle class="cls-2" cx="103.89" cy="164.91" r="5.57"/><circle class="cls-1" cx="78.62" cy="146.4" r="5.57"/></svg>