<svg id="Layer_1" data-name="Layer 1" xmlns="http://www.w3.org/2000/svg" viewBox="0 0 287.51 569.12"><defs><style>.cls-1{fill:#231f20;}</style></defs><title>maid</title><path class="cls-1" d="M142.91,97A48.49,48.49,0,1,0,94.42,48.49,48.29,48.29,0,0,0,142.91,97Z"/><path class="cls-1" d="M222.38,367.74H63.44l17.51-91.6H62.76L30.43,418.92H91.72V544.87a23.43,23.43,0,0,0,23.57,23.57,23.86,23.86,0,0,0,23.57-23.57V419.6h8.76V545.54a23.43,23.43,0,0,0,23.57,23.57,23.86,23.86,0,0,0,23.57-23.57V419.6h60.62L223.06,276.81H204.87Z"/><path class="cls-1" d="M244.61,145.48c-9.43-26.27-23.57-39.06-44.45-39.06H85.66c-20.21,0-35,12.8-44.45,39.06L1.47,293C-1.89,305.1.13,317.9,11.58,321.27c10.78,3.37,22.23,1.35,26.94-12.12l35.7-136H86.34L66.13,264H221l-20.21-90.92H213l36.37,136c4,13.47,15.49,16.16,26.27,12.12,8.76-2.69,13.47-12.12,11.45-20.88ZM100.48,127.29l16.16-20.88,26.27,53.21Zm42.43,31.66,26.27-53.21,16.16,20.88Z"/></svg>