<svg id="Layer_1" data-name="Layer 1" xmlns="http://www.w3.org/2000/svg" viewBox="0 0 354.26 673.52"><title>nanny</title><path d="M154.23,642.75a30.77,30.77,0,0,0,61.55,0V525.21a608.45,608.45,0,0,1-61.55-3.09V642.75Z"/><path d="M226,642.75a30.77,30.77,0,0,0,61.55,0V522.13A608.46,608.46,0,0,1,226,525.21Z"/><circle cx="220.92" cy="64.63" r="64.61" transform="translate(107.87 265.13) rotate(-76.89)"/><path d="M69.21,219.83a46.12,46.12,0,0,0,6.7,4.74A40.65,40.65,0,0,0,96,229.87c12.68-.18,22.35-4.94,31.41-9.81,5.59-3.17,11.16-6.62,16.84-10.11L108,391.9,87.55,494.42s10.53,24.66,133.35,24.66,133.35-24.66,133.35-24.66L333.8,391.79l-15.93-79.88C296.09,332,266.28,351.36,226.94,371a26.12,26.12,0,0,1-33.6-37.62c-.32-.38-.64-.75-.94-1.15a25.68,25.68,0,0,1-2.65-4.54l-27.88-1.41a13.47,13.47,0,1,1,1.35-26.9l30.2,1.51a25.53,25.53,0,0,1,4.44-4.2l16.38-12L206,279.26a13.47,13.47,0,0,1,14.77-22.53l28.35,18.59a12.46,12.46,0,0,1,1.5,1.22A25.12,25.12,0,0,1,262,289.88a201.74,201.74,0,0,0,23.14-19c11.42-11.07,16.83-19.91,19.35-26.23l-7.42-37.16a54.77,54.77,0,0,1,9.24,9.35c4.52,6.06,6.46,11.51,6.51,17.7a28.16,28.16,0,0,1-.18,3.19s0,0,0,0a30.2,30.2,0,0,1-.7,3.83c-2.06,8.46-8.25,19.87-22.52,33.69-16.46,16-43.3,34.58-83,54.35a20,20,0,1,0,17.84,35.81h0c42.18-21,72.23-41.3,93-61.41,14.17-13.72,24.23-27.69,30-41.93a76.88,76.88,0,0,0,5.11-19.58c0-.09,0-.17,0-.26h0a.15.15,0,0,0,0,0,68.27,68.27,0,0,0,.44-7.69c.05-15.85-5.84-30.37-14.62-41.85-13.26-17.32-32.34-29.13-52.94-37.29A180.08,180.08,0,0,0,220.9,143c-37,0-65.6,13.79-86.58,26.17-10.51,6.2-19.35,12.07-26.21,15.82-6.86,3.92-11.46,5-12.09,4.83H95.8s0,0-.2-.1c-.54-.24-3.35-2.36-7-8.84s-8.1-16.63-12.72-31a20.17,20.17,0,0,0-1.5-3.47V114.3a14.15,14.15,0,0,0-13-14.08V91.13A9.23,9.23,0,0,0,52.1,81.9h-.57c0-.2.06-.38.06-.58a14.38,14.38,0,0,0-6.8-12.2,10.77,10.77,0,1,0-15.25,0,14.38,14.38,0,0,0-6.8,12.2c0,.2.05.38.06.58h-.56A9.23,9.23,0,0,0,13,91.13v9.09A14.15,14.15,0,0,0,0,114.3V209a14.2,14.2,0,0,0,14.21,14.2H60.13A14.05,14.05,0,0,0,69.21,219.83Zm210,44.4a28.68,28.68,0,1,1,6.17-40.09A28.67,28.67,0,0,1,279.17,264.23ZM14.21,214a5,5,0,0,1-5-5V202.4l.25,0H33.72a4.23,4.23,0,0,0,0-8.46H9.48l-.25,0V178l.25,0H33.72a4.23,4.23,0,1,0,0-8.46H9.48l-.25,0V153.68l.25,0H33.72a4.23,4.23,0,1,0,0-8.46H9.48l-.25,0V129.32l.25,0H33.72a4.23,4.23,0,0,0,0-8.46H9.48l-.25,0v-6.6a5,5,0,0,1,5-5H60.12a5,5,0,0,1,5,5V209a5,5,0,0,1-5,5Z"/></svg>