<svg id="Layer_1" data-name="Layer 1" xmlns="http://www.w3.org/2000/svg" viewBox="0 0 933.91 958.08"><defs><style>.cls-1{fill:#fff;}.cls-2{font-size:872.05px;fill:#282561;font-family:Roboto-Condensed, Roboto Condensed;}.cls-3{fill:#81c350;}</style></defs><title>star</title><polygon class="cls-1" points="840.6 749.56 716.62 719.15 745.92 843.39 635.54 779.28 628.65 906.75 540.8 814.14 498.28 934.5 440.08 820.89 365.38 924.4 341.54 799 240.69 877.27 253.15 750.22 134.35 796.91 182.09 678.53 54.94 689.85 134.1 589.71 8.92 564.76 113.09 490.98 0 431.76 120.74 390.32 28.91 301.65 156.43 295.9 93.31 184.94 217.29 215.35 187.98 91.11 298.37 155.22 305.25 27.75 393.11 120.36 435.62 0 493.83 113.61 568.53 10.1 592.37 135.5 693.21 57.24 680.75 184.28 799.56 137.59 751.82 255.97 878.97 244.65 799.8 344.79 924.99 369.74 820.82 443.52 933.91 502.74 813.17 544.18 905 632.86 777.47 638.61 840.6 749.56"/><text class="cls-2" transform="translate(182.09 740.07) scale(1.47 1)">v</text><path class="cls-3" d="M638.09,422.64A84.65,84.65,0,1,1,553.44,338,84.65,84.65,0,0,1,638.09,422.64Z"/></svg>