<svg id="Layer_1" data-name="Layer 1" xmlns="http://www.w3.org/2000/svg" viewBox="0 0 531.45 416.38"><defs><style>.cls-1{fill:#89be6b;}.cls-2{fill:#000034;}</style></defs><title>Vector Smart Object4</title><path class="cls-1" d="M93.23,353.6c-.7,1.09-3.64,3.36-5.82,4.45-3.41,1.72-6.14,2.8-7.61,4.09s-3.21,3-2,4.57,3.1,2,7,1.87,7,.23,9.2.08a27,27,0,0,1,5.61-.1c2.06.2,4.13,1,4.6-1.07s.94-5.29,1.25-6.44c.45-1.65,1.59-3.21.55-3.28-1.4-.1-2.34-1.1-4-1.34a22.41,22.41,0,0,1-5.34-1.29C95.54,354.62,93.23,353.6,93.23,353.6Z"/><path class="cls-1" d="M155.42,356.48c0,1.54-.46,3.22.61,4.6s2,1.72,3.87,2.92c1.61,1,4.13,2.14,7,4.14,1.49,1,2.45,4.45-1.07,4.29s-7.82-.32-10.89-.77c-4.3-.61-6.82-1.45-9.43-1.45s-3.91.22-5.14-.54-1.84-1.68-1.68-3.84.61-7.51.61-8.89S155.42,356.48,155.42,356.48Z"/><path class="cls-1" d="M155.42,290.07c2,2.76,4,4.6,4.29,9.21s.77,14.11.77,17.64-.36,17.31-.61,21.32c-.31,4.83-2.3,14-2,15.33s2,4,.77,4.3-7.52,1.68-10.74,2-8,.15-9.2-.31-1.38-2.15-1.53-4.6-2.46-17.48-2.46-20.7-.15-6.81-.23-7.63c-.23-2.3-1.81-7.31-2.3-11.5-.35-3,1.3-14.31.54-11.85s-7.06,19.63-8.74,25.15S114,350.65,112.62,353s-2.3,6-2.76,6.75-1.84,1.23-4.14.3-2.92-2.91-5.21-3.53-3.83-1.38-6.75-1.53-4.75.31-4.75-.77A22.68,22.68,0,0,1,89,351c.15-1.07.29-2.94.61-5.06.46-3.07,4.14-15.65,5.67-20.55s5.21-10.89,5.52-11.5a54.74,54.74,0,0,0,2-7.21c.38-1.81,1.84-12.73,2.61-16.26s.61-7.52,1.53-10.74,3.38-5.37,5.68-6.9,12.88-.92,12.88-.92l6.9,6.14L141,284.7Z"/><path class="cls-1" d="M150.12,181.44c-1.14,1.5-3.79,2.42-3.91,5.18s.57,6.21-.23,8.86a29.27,29.27,0,0,1-4.6,9.09c-2.18,2.76-3.8,2.65-2.87,3.8s4.95,5.06,4.95,5.06l-3.69,12-15.3-1.84-7.6-7.59-1.72-4.14s1.84-1.39,3.34-2.42,3.57-4.6,3-6.21-.46-4.14-2-4.83-5.86-5.87-5.86-5.87l.92-8.17,3-4.48,6.33-3.22,11.73-2.3,7.36.92Z"/><path class="cls-1" d="M149.89,177.42a17.36,17.36,0,0,1-1.49,3.79c-.69,1-1.61,2.64-2.19,2a9.82,9.82,0,0,0-4.37-2.3,14.09,14.09,0,0,0-4.6-.34c-2.07.23-2.53.46-4.37-.35s-3.56-2.3-4.6-1.38-2.19.69-2.53,2a21.39,21.39,0,0,1-2,5.52c-1,1.61-1,3.56-2.41,2.87s-2.76-.81-3.68-3.45,3-11.16,3-11.16l6.67-4.71,7.71-1.27,7.59,1.84,5.52,3.33Z"/><path class="cls-1" d="M146.67,185.12c0-1.15,1-4.49.46-6.56s-2.07-5.64-4.83-6.56-8.32-1.32-11.39-.45a14.83,14.83,0,0,0-7.94,5.06c-1.38,2-4.37,10.35-4.37,10.69s-1.38-1-2.42.58-1.72,4.6-.69,6.33,3.91,4,2.53,3.45a26.33,26.33,0,0,1-6.21-4.83c-.69-1-2.42-4.6-1.84-7.82a35.68,35.68,0,0,1,3.8-10.36c1.72-2.76,3.1-5.06,5.86-6.79a21.5,21.5,0,0,1,8.63-3.22c2.88-.34,4.83-.57,6.9.58s2.3,3,4.37,3.1,7.94.23,11.5,1.72,6.79,4.37,7.25,6.09-.11,4-3,5.41S146.67,185.12,146.67,185.12Z"/><path class="cls-1" d="M160,259.2c-1.49,3.45-2,14.72-2,17.14s-1.11,7.13-.23,11.84c.38,2.05,1.73,7.25,1.73,8.17s1.38,3.68-2.53,3.91-11.35-.09-14.73-1.73c-5.44-2.64-8.51-5.86-11-8.17s-7.36-7.25-9-8.75-2.53-3.22-4-3.22-6.33-.46-8.74,1.84-3.56,3.38-3.34,2a17.43,17.43,0,0,1,2.76-6.94c1.73-2.31-.92-9.32-1-10.82s-1.15-4.37-3.1-4.72a30,30,0,0,1-5.64-1.61c-2.49-.92-4.95-1.26-4.72-2.41s5.41-17.72,6.44-20.6,2.53-8.85,3.79-11.62,4.95-10.24,6.45-11.38,5.13-2.22,6.86-1.54,4.76,3,9.47,3.61a31.37,31.37,0,0,0,8.74.11c2.88-.34,3.38-4.72,4.18-4s3.41.47,5.71,1.15,5.41.46,7.83,3.91a100.46,100.46,0,0,1,7.36,12.54c1.27,2.87,4.49,13.34,5.75,16.8s2,4.94,0,6.21-4.37,1.39-4.95,2.54S160,259.2,160,259.2Z"/><path class="cls-1" d="M113.2,257.94a87.9,87.9,0,0,0,2.87,13.12,64.3,64.3,0,0,1,2.18,8.27c0,.58-1.5.17-3.56.35-3.14.27-4,1.15-4.37.45s-1.38-5.52-2.42-8.4-3.1-8.17-3.57-9.77-.92-4.14-1.15-4.95-1.15-1.49,1.61-1.15,5.41.11,6.44.69A12.84,12.84,0,0,1,113.2,257.94Z"/><path class="cls-1" d="M163.12,250.35c.58,2.41.34,9.66.34,12.88a32.78,32.78,0,0,1-1.72,10.47c-1.15,3.1-3.22,6.79-4.14,6.79s-2.18,2.64-3.34,2.76a11.24,11.24,0,0,1-4.72-.46c-1.27-.57-2.07-1.26-2.18-2a7.46,7.46,0,0,0-.58-2.3c-.35-.57-.23-1.5-.46-2.18s-.46-1.5.23-2.07.8-1.5,1.61-2.06a6.11,6.11,0,0,1,2.07-1.15c.57-.12.57-.58,1.27-.58s.8-.19,1.61-.65,2.53-1.3,2.88-2.23a34.49,34.49,0,0,0,1-4.72c.34-1.95,1.4-6.21,1.15-8.39-.31-2.76,2-3,2.76-3.68A3,3,0,0,1,163.12,250.35Z"/><path class="cls-2" d="M60.78,347.3c.12,1.15.67,5.48,1,6.64a16.17,16.17,0,0,0,1.75,3.71c.9,1.29,2.64,4.84,2.64,4.84l-6.67-.11s-5.29-1.84-5.75-2.76a45.82,45.82,0,0,1-2.07-6.33,42.9,42.9,0,0,1-.23-4.71Z"/><path class="cls-2" d="M25.12,347.52c-.57,1.27.3,4.33-.2,7.71-.3,2,.23,4.6-.23,5.29s-6.12,3-6.12,3L14,360s-.44-.44.23-3.38a8.43,8.43,0,0,0,.81-3A15.51,15.51,0,0,1,16,348C16.84,346,25.12,347.52,25.12,347.52Z"/><path class="cls-2" d="M65.61,287.14c-.12,3.33-2.3,16.91-3,20.36A203.43,203.43,0,0,0,60.43,328c0,3.56.31,14.42.69,16.68.46,2.76,1,5.52-.12,5.87s-4.72.46-6.67.69-2.65,1-3.22.46a24.57,24.57,0,0,1-2.76-6.33C47.66,342.93,45,329.12,45,326.7s-.92-13.8-.69-15.87-.35-10.46-.35-12a50.35,50.35,0,0,1,.69-5.4s-3,9.09-3.11,11.62-2.07,10.12-2.87,13.22-3.34,7.25-4.37,10.24-3.91,10-4.83,12.31-4.16,10.62-3.75,11c.92.89-2.23-.21-4.19-.9a15.58,15.58,0,0,0-5.29-.57c-2.07.11-.69-3.91-.57-7a76.3,76.3,0,0,1,2.61-15.81c.87-3.12,2-8.8,2.55-11.56s2.67-12.67,2.67-15.42.11-8.63.11-10.13,4.83,0,4.83,0L49,289.78Z"/><path class="cls-2" d="M52.73,356.85c.72.92,2,2.53,3.5,2.53a14,14,0,0,0,4-.92c1.24-.34,1-.69,2.16-.81s2,1.29,3.35,2.32c1,.75,3.27,1.38,5.43,2.64,1.76,1,3.38,1.49,4.31,2.29a2.54,2.54,0,0,1,.21,3.57c-1,.92-1.75,1.38-4.64,1.15s-4.84-.46-8.14-.81-5.57-.8-7.52-1.14-1.55-.58-1.75-3.22S52.73,356.85,52.73,356.85Z"/><path class="cls-2" d="M24.92,359c-.16,1.84-.56,2.49-.63,4.56a8,8,0,0,1-1.35,4.85c-.9,1.07-4.72,1-6.44.81s-4.3.53-6.64.7C7,370.13-.13,370,0,368.5s1.45-3.1,3.3-4.28c1.08-.69,3.9-1.18,6-2.2,1.63-.78,4-1.2,4.26-2.5.44-2.36.57-1.81,2.86-1.62,1.75.15,5.14.92,6.17,1S24.92,359,24.92,359Z"/><path class="cls-2" d="M61.93,172.56c0,2.87-.08,11.22-.35,12.65-.35,1.84-.12,5.06-.81,7.48a23.38,23.38,0,0,1-3.68,6.67c-1.15,1.15-3.1,2.64-4,2.64s-3.45-1.15-2.19.81,3.34,9,3.34,9l-6.44,5.75s-10.35.11-10.24-.23a34.31,34.31,0,0,0-1.5-4.48l-5.75-13.46-.34-7.59,1.84-9.2,9.43-5.41,9.66-4.72Z"/><path class="cls-2" d="M70,215.24c2,0,2.65-.23,4.95-.11s4.37,0,7,.23,9.89.92,12.77.92,5.52.69,7.94-.11,4.14-2.65,6.44-2.76a19.73,19.73,0,0,1,4.48.11,15.17,15.17,0,0,1,4,1.26c.69.46,1.61.92,1.15,1.27s-.23.8.46,1.38,1.15,1.61.46,1.61-2.76-.92-2.07,0,2.3,1.84,2,2.3-.46,1-1.15.92.11.58-1,.69-3.11-1.61-4.26-2.07-3.22-2.07-4.49-2c-.73.07-2,.92-1.61,1.61s1.84,1,2.42,1.72,1.61,2.07.23,2.19-2.65-.58-4.26-1.27-3-1.15-6.21-.23A111,111,0,0,1,87,225.82a68,68,0,0,1-10.93,1c-4,0-6.67-4.6-6.67-4.6Z"/><path class="cls-2" d="M51.35,203.16c1.26.22,2.88.81,5.18,1.15s3.22.46,4.95,1.5,3.8,2.87,6.21,4.49a33.07,33.07,0,0,0,5.87,3.45c1.15.35,2.64.23,3,2.3s1,6.09,0,8.29a33,33,0,0,1-6,7.82,25.81,25.81,0,0,1-4.14,3.45c-.34.11.46,5.75.92,8.51a74.11,74.11,0,0,0,2.42,11c.88,2.47,4.94,10.47,5.87,13.23a129.22,129.22,0,0,1,2.76,12.76c.58,3.23,1.27,8.52,1.27,9.21s-1.72.69-3.91.92a10.78,10.78,0,0,0-4.72,1.6c-1.15.7-1.84,1.26-3.56.7s-5.06-1.61-6.79-1.15-4.48,2.18-6.67,2.29S44.9,295.88,42.72,296s-8.51-.8-11.39-1-6.55,0-7.48-.57-1.84-.35-3,0-2.53.46-3.45.81-1.61,1.15-2.65.58-1.5-1.15-.69-5.76,4.16-24.3,5.18-28.3c1.26-4.94,2.3-18.29,1.72-19.21s-1,.11-3.56-1.38-5.87-3.34-6.21-4,3.91-11.85,4.95-14.84a51.16,51.16,0,0,1,7-11.73c1.84-2,3.68-2.53,5.29-3.8s2.19-2.64,3.68-2,2.3.69,5.06,1.84a53,53,0,0,0,8.4,3.22c2.48.57,4.14.92,4.83-.57a8.48,8.48,0,0,0,.81-4.49A2.31,2.31,0,0,1,51.35,203.16Z"/><path class="cls-2" d="M28.34,243.42V251a87.87,87.87,0,0,0,1,11.16c.58,3.11,1.61,8.63,3.11,10.58s1.84,4,2.88,5.52,3.34,3.91,2.53,4.6-2.3,1.38-3.33-.11-1.61-4.38-1.84-3.34-2.87,4.6-1.84,5.41,4.83.22,4.26.8-2.42,2.3-3.68,2.18-3.22-.11-3.8-.69a15.31,15.31,0,0,0-1.84-2.07c-.69-.46-2.82-3.1-2.76-4.48.12-2.54,1.27-4.6.81-7.13a117.45,117.45,0,0,0-3.1-12.08c-.92-2.53-2.3-6.56-2.3-10.36s-.12-11.73-.12-12.19,1.27,0,3.33,1S28.34,243.42,28.34,243.42Z"/><path class="cls-2" d="M43.06,281.84a9.17,9.17,0,0,0,1.84,3.68c.92,1.26,1.73,2.65.69,3s-.92.34-1.5,1.15a2.22,2.22,0,0,1-2.3,1.26c-1.27-.11-2.53-1-4.6-2s-3.68-2.42-4.71-2.87-2.3-1.26-2.3-1.85,0-2.64,1-3a12,12,0,0,1,3-.81c1.61-.23,2.88-.8,4.26-.92a5.79,5.79,0,0,1,3.34.35A5.23,5.23,0,0,1,43.06,281.84Z"/><path class="cls-2" d="M62.62,175.56c0,2.07-.23,5.29-.23,6.67s-.81,2-1.5,1.73a15,15,0,0,0-4-.35c-2,0-3.56.35-4.6-.34s-2.07-1-3.22-1.73-3.68-2.18-3.91-3,1.38-2.07,3.46-2.76,8.51-1.84,8.51-1.84Z"/><path class="cls-2" d="M31.22,185.68c-2.76,2.65-3.57,4.83-6,7s-3.34,2.41-3.34,4.95.69,3.68,0,5.52-1.15.69-.69,1.84.69,1.61,1.38,1.15.46-1,1.15,0-1.61,1.49,1.61,1.49,3,.58,4.26,0,2-.57,3.45-1.26,2.76-.69,3.11-2.3.81-2.19.81-3.68.12-3.56-.81-4.71-1.38-2-2.07-2.88-.92-2.07-1-4.25A3.25,3.25,0,0,0,31.22,185.68Z"/><path class="cls-2" d="M63.08,181.19c-1.15-1.38-3.22-2.64-6.79-2.3A36,36,0,0,0,45,182c-2.53,1.38-6.79,3.91-9.78,5.76s-5.52,3.79-8.74,3.45-6.32-.92-6.21-2.31,3.91-7.81,6-12,4.37-9.55,7-11.27,5.41-2.53,9.66-3.22,6.33-2.41,9.55-1.37,7.13,3,8.74,5.75,3.57,5.18,3.11,6.79a18.73,18.73,0,0,0-.69,4.83A8.25,8.25,0,0,1,63.08,181.19Z"/><path class="cls-2" d="M344.95,400.64a4.71,4.71,0,0,0-3.2-3.51c-1.32-.56-6.48-1-9-2.54s-3.3-4.53-4.62-6.82a53.72,53.72,0,0,1-2.28-5,1.91,1.91,0,0,0,.72-1.7c-.22-.73-1.49-5.48-1.76-6.3a30.47,30.47,0,0,0-1.84-4.55c-.63-1.24-2.13-5.65-2.79-7.49s-4.11-9.46-4.69-11.51-8.73-17.82-9.53-20-5-15.91-6-19.51-5.87-12.68-6.38-14.16-2.35-6.45-2.64-7.71-.51-1.53-1.68-3.13a8.39,8.39,0,0,1-1.61-4,27.7,27.7,0,0,0-1.55-5.36c-.74-1.69-1.46-1.91-1.69-3.09a51.87,51.87,0,0,1-.59-5.79c0-1.17-.44-4.69-1-5.37s-.65-4.62-.65-5.86-1.32-3.74-1.32-4.84-1-3-1.46-4.55-.08-2.64-.37-4.1-1.62-7.19-1.62-8.73a19.42,19.42,0,0,0-.59-4.11c-.21-1-.44-5.72-.66-7.34,0-.22-.13-.63-.27-1.14a1.21,1.21,0,0,0,.93-.83,11.33,11.33,0,0,0,0-4.73c-.21-1.22-.21-4.74-.55-7.83s-1-4.06-1.43-6.48a70.55,70.55,0,0,0-2.76-8.91c-1.21-3.52-.33-2-.33-4.72s.77-5.07.88-7.26,2.31-4.18,3-6.27.34-5.28.34-8.14-.66-3.63-1-6.06,1.76-5.28,2.42-8,5.61-5.27,7.37-6.05,6.16-1.1,7.81-2,4.73-.77,6.38-4,.77-4.4,1.43-5.61,4.41-3.08,5.84-4.18.88-4.18,1.1-6.49S311.37,111,312,108.77a103.53,103.53,0,0,0,2.64-10.9,48.65,48.65,0,0,0-.07-5.69c1.48,1.28,2-.77,4-3.77,2.2-3.3,2-3.51,2.09-7.69s-2-5.84-3.75-8.37-1.43-3.08-1.87-5a15.54,15.54,0,0,0-2-5.39c-1.55-2.87-1.55-8.48-2.43-12.11s-3.3-12.44-4.51-18.48S300,14.93,294.76,9A28.8,28.8,0,0,0,276.67.1c-4.73-.33-5.94.11-10.56,1.75s-6.75,2.94-9.54,5.46c-3.1,2.82-7,8.36-8.25,11.78s-.41,6.52.11,9,1.86,3.07,3.29,3.73h.07a3.58,3.58,0,0,0,.48,1.2,4.43,4.43,0,0,1,1.43,3.63A21,21,0,0,1,252.51,42c-.45,1-1.55,3-.11,3.63s3.41.34,4.4.55a1.58,1.58,0,0,1,1.33,1.55c0,.55.22,1.2.77,1.31s1.1.44,1.1,1a4.52,4.52,0,0,1-.26,1.5c-.18.58.69,1.21,1.24,1.53s.89,2.45.89,3.56-.52,3.19,2.2,3.08a25.37,25.37,0,0,0,5.17-.51c.18.95.3.51.37-.1a6.06,6.06,0,0,0,1.37-.67c.05.56.1,1.24.12,1.92l-.31,0c-3.42.23-3.63.49-4.73.55-2.31.11-3.85.11-5.28.11s-6.06.33-8.14.55a11.8,11.8,0,0,0-6.05,2.79,36,36,0,0,0-1.76-4.66,6.39,6.39,0,0,0-.9-.16,1.07,1.07,0,0,0-.2-.28c-1.32-1.1-1.76-2.41-2.64-3.3l-.09-.09c.41-.48.79-.94,1.08-1.34,1.29-1.79,1.32-4.5,1.32-6.26s.44-6,.55-7c0-.32.09-.68.15-1,1.06.74,1.47,1.24,1.61.15.22-1.66.33-8.14-.33-10.89s-1.54-7.65-4.18-11.22-6.89-5.95-8.8-6.17c-1.4-.17-1.5.66-3.23.37a13.85,13.85,0,0,0-3.92-.58c-2.87-.12-6.58.48-8,1.42-2.42,1.57-6,7.7-6.6,10.35s-2.09,9.24-1.87,12,.89,6.16,1.76,7a3.66,3.66,0,0,0,1.58,1.17,6.24,6.24,0,0,0,1.39,3.35,12.6,12.6,0,0,1,.95,1.21,7.67,7.67,0,0,0-1.61.44c-2.31,1-2.09,1-3,1.76s-.88,2.43-1.76,3.64a3,3,0,0,1-1,.8l-.48-.15c-1.21-.33-3.3,1.54-4.4,2.09a13.25,13.25,0,0,0-2.5,1.5,43,43,0,0,0-5.09,2.89,63.35,63.35,0,0,0-5.28,5.28c-1.32,1.44-2.07,6.89-2.86,8.48-.88,1.76-2.43,2.86-4.29,4.29s-.55,5.84,0,9.35,5.17,5.94,7.59,6.37,3.07.67,3.07,1.45c0,0,0,.09.07.14-1.06.33-2.4.77-4.4,1.28-2.51.64-3.92,1-5.34,2.09s-1.71,4.82-1.87,7,2.1,4.06,3,4.95a15.26,15.26,0,0,0,4,2.7v.13a3.61,3.61,0,0,0-.62.81c-.66,1.32,0,3.07.11,5.38a9.57,9.57,0,0,0,2.16,5,31.23,31.23,0,0,0,3.56,8.49c.93,1.39,2.25,3.43,3.52,5.06a2.14,2.14,0,0,1-.11.23c-.66,1.33-.22,2.75-.22,4s1.21,1.87,2,2.31c0,0,0,0,.08.06a5.28,5.28,0,0,1-.41.81c-1.32,1.87-4.18,5.72-5.05,8.37s-6.17,20.8-6.71,24.54-5.17,21.67-5.17,23c0,1,1.52,1.54,3.12,2.11a.29.29,0,0,0-.08.12c-.52,1.16.06,7.56.21,9.38s.66,16.29.59,18.56,1,20,1,21.35.81,5.94.81,7.11a18,18,0,0,0,.48,4.73,12,12,0,0,1,.55,3.4c0,2.09,1.17,26.05,1.1,28.11s-1.4,25.59-1.68,27.43-.33,5.3-.44,7c-.19,2.65-.88,17.53-.88,19.66s.25,11.78.3,12.76c.07,1.58.29,9.38.29,11.27,0,2.63-1,15.29-.14,16.38,0,.07.22.11.45.14-.16,2.22-.53,4.75-1.37,6.09-1.7,2.71-8.18,7.95-9.09,8.74a3.56,3.56,0,0,0-1.48,2.72c-.14,2-1.39,5,3.18,5.9,2.38.45,6.59.91,9.55-.44s7.83-3.52,8.74-4.89a11.79,11.79,0,0,0,1.56-3.49l5.23,1.11v-.06a.36.36,0,0,0,.25-.07,50.81,50.81,0,0,0,5.23-3.28c.8-1.24,0-7.14-.71-11,2.34-.11,4.86-.47,5.29-.86.66-.59.73-10.41,1-12.4s1.69-16.79,1.69-18.33.65-13.34.72-15.62-.44-15.18-.44-16.64,0-13.69.18-14.94a35.71,35.71,0,0,0,.33-4.14c0-.33.11-8.4.44-10.82.17-1.27.51-4.07.81-5.09s.84-8.88,1.17-10.77c.21-1.22.66-7.49.66-9s.15-14.16.08-15.55,1-17.28,1-18.37.22-2.19.37-3.63c.11-1.12.59-4.48.59-5.28,0-.58.64-3.1,1-4.76.62.16,1.25.34,1.78.5.83.25,2.35,1,3.53,1.4a15,15,0,0,0,2.71.88c.88.14,1-1.54,1.18-2.05a2.89,2.89,0,0,0,.12-.61c.21.45.42.89.61,1.26,1.1,2.21,6,13.8,6.61,15.85s7.18,17.33,8,18.66A114.26,114.26,0,0,1,254,276.28c.7,1.87,3.6,9.75,4.33,12.11s3.81,13.94,4.62,16.44,7.55,22.22,7.85,23.25,1.32,2.19,1.47,3.07a6.94,6.94,0,0,0,.88,2.57c.43.66.37,2,.58,3.15a31.16,31.16,0,0,0,1.47,3.52c.22.74,1.17,2.42,1.17,3.23a8.47,8.47,0,0,0,1.46,3.22c.51.73.44,2.13.88,3.15a9.53,9.53,0,0,1,.73,2.87c.08.8,1.17,1.83,1.17,2.71a5.27,5.27,0,0,0,1.25,2.78c.59.73.22,1.91.66,3a14.79,14.79,0,0,1,1,3.44c.08.89,1.4,2.43,1.69,4.26a18,18,0,0,0,1.76,4.7c.44.87,1.62,5.5,2.64,8.36s2.5,7.77,2.93,8.22.15,1.17.59,2.42c.58,1.63,4.11-.15,6-.66.46-.12,1.24-.34,2.15-.62.19,5.33.44,12.25.44,12.79,0,.88,2.09,1.31,2.86,1.31s7,.34,7-.44.21-2.64.11-3.52.66-1.77,2-1.66,2.42,1.88,3.41,3.41,1.88,2,4.07,3.08,6.28,1.21,9.79,1.21,11.12-1.54,14.09-2.31S345.61,403,344.95,400.64Z"/><path class="cls-1" d="M423.83,293.42c-.48-2.67-3.11-17.1-3.78-20.73s-3.33-16.35-4.37-20-9.57-10.1-12-10.92-8.82-2.7-10.15-2.92c-.92-.78-.9-1.28-.76-1.66s1.29-1.11,2.06-1.7a14.6,14.6,0,0,0,2.51-4.3A6.44,6.44,0,0,1,398,230c0,.32,0,.57.36.64,1.26.29,5-1.5,7.8-3.44s4.57-6.3,2.37-8.88-3.66-4.77-4.89-5.55a30.63,30.63,0,0,0-3-1.59l-.72-1.16c-.48-1.28-3.11-10.54-5.71-12.89-2.56-3.91-10.45-6.27-13.49-5.72-3.5.08-10.17,1.71-12.3,4-1.84,1.56-5.87,6.91-6.17,9s-.56,6.54-1.2,7.16a48.17,48.17,0,0,0-6.13,7c-1.15,1.22-3.76,3.67-3,5.46,1,1.92,3.8,4.14,5.63,5.69a19.24,19.24,0,0,0,5.1,2.92c1.49.67,5,.89,6.41.92.58,0,.74-.11.82-.27l.32.18c.74.39,1.3,2.68,2,3.72s1,2.79.66,2.9c.6-.74-6.09,2.11-9.15,2.77a31.55,31.55,0,0,0-8,3.57c-1.92,1.08-4.55,7.45-5.56,10.07s-5.91,15.52-6.76,19.1-3.57,12.76-3.23,14.48a3.57,3.57,0,0,1-.85,3.37c-.59.54-2.2,4.67-3,6.17s-.49,4.13-.52,5.27c0,.33.21.36.51.26a8.24,8.24,0,0,1,.11,2.41c-.28.86.58,2,.66,3a8.31,8.31,0,0,0,1.57,3.2c.48.64,3.31,3.26,4.07,3.39S344,316,344,316s-1.09-1.55-1.57-2.19a8.3,8.3,0,0,1-1-1.8,4.31,4.31,0,0,1-.46-1.52c0-.38,1.26-.1,1.88.55s1.51-.08,2.27-.07.3-2,.45-2.63a19.11,19.11,0,0,0,.17-2.4s.07-.31.11-.53a4.51,4.51,0,0,0,1.58,1.46c1.12.42,2.51-2,3.31-3.31s3.54-5.39,4.92-7.06,2.42-5.6,2.82-6.72-.09-4.17.88-4.33-1,7.92-1,10.18-1.23,3.56-1.89,6.58-.11,4.16-.16,5.66-1.6,3.55-2.56,4.29-.61,1.49-.26,2.47,3,1.2,3.93,1.6c0,1.32-.07,8.89.06,11.53s-.09,10,.39,13.82,1.4,11,1.7,14.43,1.7,6.65,2.54,10.46a63.7,63.7,0,0,1,1.61,9.69c.14,2.45.6,6.25.56,7.58s-.9,4.7,0,5.49,2.25.82,1.65,1.94-4.06,3.1-4.31,5-.5,4.72,1,4.94a66.59,66.59,0,0,0,7.16.95c2.26.06,5.49,0,7-.75s2.64.07,3.45-1.8a10.72,10.72,0,0,0,.88-4.32,11.48,11.48,0,0,1,.83-2.82,38.81,38.81,0,0,0,2.53,4.23,10.7,10.7,0,0,1,1.37,5.32c0,1.51-.67,3.58,1.21,4.21s5.29.51,7.74.58,7.35.77,8.32-.34a6.22,6.22,0,0,0,1.11-6c-.87-2.66-1.55-4.95-1-5.89a12.08,12.08,0,0,0,1.22-3.17c.41-1.31-.05-4.53-1.1-8.16s-1.31-14.42-.25-18.17,3.45-16,3.57-20.13,1.56-15.85,1.66-19.24c.08-3.24.32-5.78.4-8.3a2.59,2.59,0,0,0,.74.38c1.71.42,2.48-.31,2.88-1.05a6.51,6.51,0,0,1-1.83-1.76c-.36-.76-.08-4.54,0-6.24a24.42,24.42,0,0,0-1.31-7.4c-.87-2.48-.44-4.73-1-6.46s-1-5.5-1.69-7.59.27-2.26.63-1.51,2.66,6.12,2.8,8.2.79,5.33.75,7.21a21,21,0,0,0,2.18,7.3,16.25,16.25,0,0,0-.48,2.08c0,.64-.06,2.14-.08,2.77a11.62,11.62,0,0,0,.06,2.15c.12.36.84,1.66,1.23,1.16s.78-.86,1-1.23.41-.74.9-.36.88.54.84,1.54a21.34,21.34,0,0,1-.07,2.79c-.16,1-.56,1.72-.57,2.37s-.66,1.23.48,1.26a2.42,2.42,0,0,0,1.9-.57.87.87,0,0,1,1,0s-.13.5.24.64,1.64-.46,1.64-.46a10.57,10.57,0,0,0,.91-1c.39-.48.78-1.09.78-1.09l.53-.5L424,319l.71-2.77a11.13,11.13,0,0,0,.3-1.77c0-.62.06-2.26.07-2.64a2.46,2.46,0,0,0-.2-2.67,2,2,0,0,0,.84-.22C426.46,308.43,424.34,296.07,423.83,293.42Z"/><path class="cls-2" d="M419.76,257.16c.28-.71,3.22-3.52,3.81-4a30.18,30.18,0,0,1,3.72-2.25c.75-.35,2.66-1.88,4.44-.74a42.66,42.66,0,0,1,6.67,5c1.32,1.46,1.72,2.65,2.36,3.08.93.65,7.1,2.13,9,2.21.68,0,2.76-.11,4.53-.25.22-2.19.38-3.91.34-4.47-.13-2.08,1-6.34.91-7.72s.47-3.51.18-4.42-4.33-2.28-4.33-2.28,2.63-2.25,4-2.34a4.9,4.9,0,0,1,.54,0L455,237.2l-.1-1a2.91,2.91,0,0,0-.12-2.11c-.26-.45-.63-.11-1.25-.21a8.86,8.86,0,0,1-2.21-.64c-.67-.37-.35-.61-.55-1.22s.05-1.7-.57-1.66a2.15,2.15,0,0,1-1.71-.36,3.23,3.23,0,0,1-.76-2.1,4.34,4.34,0,0,1,.78-2.38,7.33,7.33,0,0,0,1-3.31c-.06-.92-4.31-6.83-4.67-7.58a12.38,12.38,0,0,1-.55-1.36c-5.09-18.69,18.16-27.62,18.16-27.62,26.4-5.42,31.77,15.26,32.33,21.57s-7.14,16.24-8.28,17.85a16,16,0,0,0-1.47,4.72c1.13-.76,2.29-1.52,2.29-1.52s2.14.54,2.18,1.24-.47,3.51.53,4.85,7.24,7.88,8,8.76,2,5.67,2.17,8.22.93,10.6,1.11,13.38-.23,18.34,0,21.57,1.09,13.17,2.18,15.64,5.45,23.31,6.4,27.19,4.94,15.23,7.17,17.62,6.63,16.27,7.18,17.63,3.89,13.43,4,15.75-1.27,1.71-1.67,2.66,1.62,3.84,1.62,3.84,2.67,5.4,3,7.69,0,3.49-1.08,4.71-5.33,3.6-6.42,4.6-4.46,2.84-6.46,4.35a14,14,0,0,1-6.55,2.52,5.94,5.94,0,0,1-4-.67c-1.46-.83-1.31-2.26-1.61-3.16s.77-2.59.94-3.53,1.65-3.12,2.49-4.33a7.85,7.85,0,0,0,.88-4.47c-.07-1.16-.1-1.62-.84-2.26s-2.1-.34-3.27-.26-2.64-1.66-3.67-3-1.72-1.51-1.82-3.13a14.4,14.4,0,0,0-1-4.82c-.52-.89-3.34-5.1-4.65-7.11s-6.09-7.94-7.92-11.32-1.19-11.06-2.78-14.21c0,0-3.4,11.83-3.26,14.13s.47,3.45.59,5.3-1.75,5.45-1.45,6.6-1.18,6.57-1.18,6.57l-4.72,2.39a43.13,43.13,0,0,0,.56,5.06c.28.68,1.18,3.87.35,5.32s-1.31,1.47-2.62,2.47a38.51,38.51,0,0,1-8.33,3.81c-2.72.85-8.43,2.39-10.93,3.24s-8.33.33-9.51-.07-2-.63-2.33-1.38-.16-1.23,1.14-2.73,7.29-5.57,9.7-7.8,2.62-6,2.8-6.9.2-4,.2-4a4,4,0,0,0-2.43-1.47c-1.38-.15-.91-3.42-1-5.28s-.18-2.76.92-3.54-.08-4.86-.65-6.45a61.91,61.91,0,0,1-1.59-10.33c-.21-3.23,2.07-14.52,2-15.23s1.8-11.7,1.94-13.1,2.87-5.76,3.29-6.48-.84-2.27-.84-2.27-2.76-17.45-2.84-18.6-.32-19.23-.65-20.84a17.46,17.46,0,0,1,.11-3.05c-4.06-1.37-14.76-5-15.29-5.33a10.83,10.83,0,0,0-3.16-1c-.78-.1-3.4-2.4-3.91-3s-3-3.66-4-4.07-3.86-.17-4.5-.17a3,3,0,0,1-1.9-.55A3.2,3.2,0,0,1,419.76,257.16Z"/></svg>