<svg id="Capa_1" data-name="Capa 1" xmlns="http://www.w3.org/2000/svg" viewBox="0 0 90 90"><title>whatsup</title><path id="WhatsApp" d="M90,43.84A44.26,44.26,0,0,1,24.46,82.23L0,90,8,66.48A43.38,43.38,0,0,1,1.63,43.84a44.18,44.18,0,0,1,88.37,0ZM45.82,7A37,37,0,0,0,8.67,43.84a36.47,36.47,0,0,0,7.08,21.61L11.11,79.14,25.38,74.6A37.18,37.18,0,0,0,83,43.84,37,37,0,0,0,45.82,7Zm22.31,47c-.27-.45-1-.72-2.08-1.25s-6.41-3.14-7.4-3.49-1.72-.54-2.44.54-2.8,3.49-3.43,4.21-1.26.81-2.35.27a29.64,29.64,0,0,1-8.71-5.33,32.4,32.4,0,0,1-6-7.44c-.63-1.08-.07-1.66.47-2.19S37.26,38,37.8,37.36a7.2,7.2,0,0,0,1.08-1.79,2,2,0,0,0-.09-1.88c-.27-.54-2.44-5.83-3.34-8s-1.8-1.79-2.44-1.79-1.35-.09-2.08-.09a4,4,0,0,0-2.89,1.34,12,12,0,0,0-3.79,9c0,5.29,3.88,10.4,4.42,11.11s7.49,11.92,18.5,16.22,11,2.87,13,2.69,6.41-2.6,7.31-5.11S68.4,54.39,68.13,53.94Z" transform="translate(0 0)"/></svg>